#!OML:ASF X:\für Bonn\!DataBase\2005_08_11_Bastian_Final\c3d\Bastian.ASF
:FULLY-SPECIFIED
:DEGREES
386
root 20.5126 17.3673 -1.35177 362.625 -68.3024 -0.234621
lowerback 46.8074 3.55182 2.93674
upperback 17.7186 3.20246 0.281724
thorax -1.24561 0.878896 -2.35117
lowerneck -10.0459 -9.89713 0.0280039
upperneck -23.8988 -11.8508 17.9228
head -4.38743 -7.53516 5.70368
rclavicle 2.62396e-014 1.27222e-014
rhumerus 25.0276 49.3548 -54.3207
rradius 29.3348
rwrist -9.55033
rhand -23.8012 0.950711
rfingers 7.12502
rthumb 2.66932 -29.0123
lclavicle 2.62396e-014 1.27222e-014
lhumerus -7.77677 -19.1004 84.7145
lradius 25.1832
lwrist 28.0872
lhand -13.7358 -10.3046
lfingers 7.12502
lthumb 12.3838 19.3086
rfemur -20.1163 -4.57403 22.3283
rtibia 50.3944
rfoot -15.5939 -13.2166
rtoes -14.4751
lfemur -17.0276 -2.65221 -20.9271
ltibia 33.1677
lfoot -9.97065 -11.284
ltoes -10.0079
387
root 20.436 17.3692 -1.32687 362.821 -68.4512 -0.760124
lowerback 46.084 3.52735 2.84209
upperback 17.6758 3.15823 0.293591
thorax -1.13653 0.861354 -2.26692
lowerneck -10.0724 -9.88353 -0.063132
upperneck -23.6807 -11.8433 17.9574
head -4.30455 -7.50567 5.71083
rclavicle -3.10104e-014 6.71892e-014
rhumerus 23.7605 49.5693 -55.1693
rradius 29.2832
rwrist -9.73625
rhand -24.1007 0.883717
rfingers 7.12502
rthumb 2.38006 -29.0828
lclavicle -3.10104e-014 6.71892e-014
lhumerus -7.71642 -18.8655 84.6793
lradius 25.0743
lwrist 28.0747
lhand -13.9384 -10.2089
lfingers 7.12502
lthumb 12.1885 19.416
rfemur -20.1288 -4.27164 22.5378
rtibia 51.3941
rfoot -15.1757 -13.4684
rtoes -14.3858
lfemur -16.3135 -2.53097 -20.7174
ltibia 33.0738
lfoot -10.295 -11.2984
ltoes -10.1847
388
root 20.3593 17.3678 -1.30066 362.978 -68.5937 -1.21369
lowerback 45.3195 3.46881 2.77469
upperback 17.6465 3.08165 0.257382
thorax -0.994348 0.834568 -2.23468
lowerneck -10.0891 -9.84564 -0.130052
upperneck -23.4881 -11.7927 18.0528
head -4.23185 -7.46324 5.737
rclavicle 3.02153e-014 -2.54444e-014
rhumerus 22.4414 49.6646 -56.1535
rradius 29.227
rwrist -9.9616
rhand -24.3973 0.908707
rfingers 7.12502
rthumb 2.09369 -29.0608
lclavicle 3.02153e-014 -2.54444e-014
lhumerus -7.60293 -18.5321 84.6039
lradius 24.9055
lwrist 27.931
lhand -14.1481 -10.1596
lfingers 7.12502
lthumb 11.9863 19.4772
rfemur -20.2408 -4.00968 22.7127
rtibia 52.4918
rfoot -14.7347 -13.6548
rtoes -14.0109
lfemur -15.6522 -2.3809 -20.5444
ltibia 33.0174
lfoot -10.5935 -11.3398
ltoes -9.95893
389
root 20.2808 17.367 -1.27573 363.171 -68.7547 -1.69345
lowerback 44.5505 3.43162 2.69097
upperback 17.6128 3.02625 0.245066
thorax -0.851109 0.815201 -2.17652
lowerneck -10.1259 -9.80384 -0.155335
upperneck -23.2464 -11.7552 18.0615
head -4.1503 -7.42061 5.72572
rclavicle -2.14687e-014 -2.70347e-014
rhumerus 21.0983 49.6263 -57.204
rradius 29.1212
rwrist -10.0773
rhand -24.5721 0.827848
rfingers 7.12502
rthumb 1.92485 -29.1432
lclavicle -2.14687e-014 -2.70347e-014
lhumerus -7.51023 -18.1857 84.5433
lradius 24.7874
lwrist 27.7907
lhand -14.198 -10.1242
lfingers 7.12502
lthumb 11.9382 19.5154
rfemur -20.4124 -3.69775 22.9008
rtibia 53.6443
rfoot -14.2166 -13.7617
rtoes -13.2526
lfemur -15.0025 -2.26557 -20.3537
ltibia 32.9918
lfoot -10.9428 -11.3662
ltoes -9.80112
390
root 20.2026 17.3649 -1.25027 363.31 -68.8899 -2.14852
lowerback 43.8505 3.36969 2.62275
upperback 17.5604 2.94945 0.228013
thorax -0.740276 0.785719 -2.12468
lowerneck -10.1778 -9.76171 -0.162275
upperneck -22.9553 -11.7233 18.0629
head -4.05257 -7.37745 5.70536
rclavicle -3.97569e-014 3.18055e-015
rhumerus 19.3971 49.0129 -58.8534
rradius 28.8279
rwrist -9.59184
rhand -24.6662 0.901307
rfingers 7.12502
rthumb 1.83396 -29.0706
lclavicle -3.97569e-014 3.18055e-015
lhumerus -7.44046 -17.8436 84.4922
lradius 24.6815
lwrist 27.6221
lhand -14.2515 -10.0329
lfingers 7.12502
lthumb 11.8866 19.6097
rfemur -20.6066 -3.42312 23.0792
rtibia 54.8543
rfoot -13.5108 -13.7546
rtoes -12.7036
lfemur -14.3199 -2.1192 -20.1772
ltibia 32.9462
lfoot -11.2633 -11.4183
ltoes -9.85789
391
root 20.1229 17.362 -1.22436 363.548 -69.0429 -2.70123
lowerback 43.1499 3.29258 2.5926
upperback 17.5042 2.86828 0.202468
thorax -0.625997 0.756777 -2.0997
lowerneck -10.2517 -9.71131 -0.0994847
upperneck -22.6247 -11.6988 17.9857
head -3.95072 -7.33518 5.64697
rclavicle 9.06458e-014 -9.93923e-015
rhumerus 17.7364 48.3859 -60.419
rradius 28.5845
rwrist -9.14358
rhand -24.8005 0.936322
rfingers 7.12502
rthumb 1.70421 -29.0366
lclavicle 9.06458e-014 -9.93923e-015
lhumerus -7.39573 -17.5134 84.4288
lradius 24.6062
lwrist 27.4374
lhand -14.2612 -9.97745
lfingers 7.12502
lthumb 11.8772 19.6657
rfemur -20.856 -3.14222 23.2853
rtibia 56.1112
rfoot -12.8084 -13.6451
rtoes -11.9924
lfemur -13.6083 -1.95787 -19.9604
ltibia 32.8521
lfoot -11.5775 -11.4773
ltoes -9.71896
392
root 20.0423 17.3619 -1.19882 363.554 -69.1918 -3.0172
lowerback 42.4649 3.22655 2.47574
upperback 17.4669 2.76525 0.178958
thorax -0.495435 0.711084 -2.02135
lowerneck -10.3257 -9.66962 -0.091888
upperneck -22.2975 -11.6769 17.9611
head -3.84123 -7.29386 5.61338
rclavicle 7.15625e-015 5.18828e-014
rhumerus 16.1634 47.6061 -61.9207
rradius 28.354
rwrist -8.59081
rhand -24.9202 0.969427
rfingers 7.12502
rthumb 1.58862 -29.0044
lclavicle 7.15625e-015 5.18828e-014
lhumerus -7.32621 -17.1194 84.3809
lradius 24.5599
lwrist 27.2438
lhand -14.2575 -9.87557
lfingers 7.12502
lthumb 11.8808 19.7674
rfemur -21.1594 -2.90135 23.3985
rtibia 57.4271
rfoot -12.2265 -13.4305
rtoes -11.1484
lfemur -12.8552 -1.81385 -19.8398
ltibia 32.6861
lfoot -11.8354 -11.5063
ltoes -9.65812
393
root 19.9595 17.367 -1.17185 363.641 -69.3296 -3.4166
lowerback 41.7841 3.14781 2.41784
upperback 17.4304 2.66995 0.168026
thorax -0.357135 0.67194 -1.96267
lowerneck -10.4353 -9.62382 -0.0504147
upperneck -21.9431 -11.6606 17.8905
head -3.72393 -7.25192 5.55738
rclavicle 3.26007e-014 -2.90226e-014
rhumerus 14.6488 46.7923 -63.3146
rradius 28.1541
rwrist -8.15183
rhand -25.0894 0.96709
rfingers 7.12502
rthumb 1.42521 -29.0079
lclavicle 3.26007e-014 -2.90226e-014
lhumerus -7.23445 -16.7447 84.35
lradius 24.526
lwrist 27.0096
lhand -14.1917 -9.76035
lfingers 7.12502
lthumb 11.9443 19.8789
rfemur -21.5273 -2.70496 23.531
rtibia 58.7811
rfoot -11.979 -13.0963
rtoes -9.64335
lfemur -12.056 -1.68802 -19.6937
ltibia 32.4536
lfoot -12.124 -11.5082
ltoes -9.93841
